# xmcd CD database file
#
# Track frame offsets:
#	150
#	13351
#	27422
#	42078
#	57454
#	77555
#	95706
#	113256
#	122557
#	135458
#	150778
#	160004
#	172740
#	184246
#	196982
#	217653
#	232400
#	246541
#	262826
#	276344
#
# Disc length: 3842 seconds
#
# Revision: 1
# Processed by: cddbd v1.5.2PL0 Copyright (c) Steve Scherf et al.
# Submitted via: cdripper 1,0,43,1226
#
DISCID=070f0014
DTITLE=Various Artist - 100 Country Hits [CD2)
DYEAR=2010
DGENRE=Country
TTITLE0=Lynn Anderson - Rose Garden
TTITLE1=George Jones - The grand tour
TTITLE2=Rosanne Cash - Seven year ache
TTITLE3=Billy Ray Cyrus - Achy Breaky heart
TTITLE4=Brad Paisley - She's everything
TTITLE5=Lonestar - Amazed
TTITLE6=Eddie Rabbitt and Juice Newton - Both to each other (friends and lovers)
TTITLE7=Charley Pride - Kiss an angel good mornin'
TTITLE8=The Browns - The three bells (les Trois Cloches)
TTITLE9=Hobo Ekspressen - En at bli' som
TTITLE10=Chet Atkins - Yakety Axe
TTITLE11=Bob Wills and His Texas Playboys - New spanish two step
TTITLE12=Waylon Jennings and Willie Nelson - Mammas don't let your babies grow up to be cowboys
TTITLE13=Exile - Give me one more chance
TTITLE14=Henning stærk - Sweetheart
TTITLE15=Rodney Crowell - She's crazy for leaving
TTITLE16=Charlie Mc'Coy - I really don't want to know
TTITLE17=Vince Gill - Cinderella
TTITLE18=Janie Frickie - He's a heartache (lookin' for a place to happen)
TTITLE19=Eddy Arnold - Make the world go away
EXTD=Sony Music\n88697736142 YEAR: 2010
EXTT0=
EXTT1=
EXTT2=
EXTT3=
EXTT4=
EXTT5=
EXTT6=
EXTT7=
EXTT8=
EXTT9=
EXTT10=
EXTT11=
EXTT12=
EXTT13=
EXTT14=
EXTT15=
EXTT16=
EXTT17=
EXTT18=
EXTT19=
PLAYORDER=
